# xmcd
#
# Track frame offsets:
#	150
#	16807
#	32482
#	47767
#	63777
#	82414
#	101117
#	114949
#	132974
#	147459
#	165542
#	178192
#	195515
#	213750
#	234650
#
# Disc length: 3354 seconds
#
# Revision: 1
# Processed by: cddbd v1.5.2PL0 Copyright (c) Steve Scherf et al.
# Submitted via: audiograbber 1.83.01
#
DISCID=cb0d180f
DTITLE=Sound Choice Karaoke - SC8560
DYEAR=1900
DGENRE=Karaoke Country
TTITLE0=Kinleys - My Heart Is Still Beating
TTITLE1=Lisa Angelle - I Wear Your Love
TTITLE2=Lorrie Morgan - Here I Go Again
TTITLE3=Jerry Kilgore - Love Trip
TTITLE4=Brooks and Dunn - Missing You
TTITLE5=Clay Walker - Live Laugh Love
TTITLE6=Chaleee Tennison - Handful Of Water
TTITLE7=Mandy Barnett - Whispering Wind (Blows By)
TTITLE8=George Strait - What Do You Say To That
TTITLE9=Pam Tillis - After A Kiss
TTITLE10=Matt King - Rub It In
TTITLE11=Ty Herndon - Steam
TTITLE12=Lace - I Want A Man
TTITLE13=Gary Allen - Smoke Rings In The Dark
TTITLE14=Randy Travis - A Man Ain't Made Of Stone
EXTD=
EXTT0=
EXTT1=
EXTT2=
EXTT3=
EXTT4=
EXTT5=
EXTT6=
EXTT7=
EXTT8=
EXTT9=
EXTT10=
EXTT11=
EXTT12=
EXTT13=
EXTT14=
PLAYORDER=
